<svg xmlns="http://www.w3.org/2000/svg" height="50" width="50"><path fill="#BBBBBB" d="M10.07 34.2c-1.4,0 -2.55,-0.26 -3.47,-0.78 -0.92,-0.51 -1.61,-1.23 -2.08,-2.15 -0.47,-0.93 -0.73,-2.01 -0.77,-3.23 -0.02,-0.63 -0.03,-1.29 -0.03,-2.01 0,-0.71 0.01,-1.39 0.03,-2.04 0.04,-1.23 0.3,-2.31 0.77,-3.23 0.47,-0.93 1.16,-1.65 2.08,-2.16 0.92,-0.52 2.07,-0.78 3.47,-0.78 1.04,0 1.96,0.15 2.75,0.44 0.79,0.28 1.44,0.67 1.97,1.16 0.52,0.48 0.92,1.02 1.19,1.62 0.27,0.6 0.43,1.22 0.46,1.86 0.01,0.13 -0.03,0.25 -0.13,0.34 -0.1,0.09 -0.22,0.13 -0.35,0.13l-1.25 0c-0.14,0 -0.26,-0.03 -0.36,-0.11 -0.09,-0.08 -0.17,-0.21 -0.21,-0.41 -0.26,-1.18 -0.74,-1.99 -1.45,-2.43 -0.7,-0.44 -1.58,-0.66 -2.65,-0.66 -1.21,0 -2.17,0.34 -2.88,1.03 -0.72,0.69 -1.1,1.8 -1.16,3.31 -0.05,1.24 -0.05,2.52 0,3.82 0.06,1.52 0.44,2.62 1.16,3.31 0.71,0.69 1.67,1.04 2.88,1.04 1.07,0 1.95,-0.22 2.65,-0.66 0.71,-0.44 1.19,-1.25 1.45,-2.44 0.04,-0.19 0.12,-0.33 0.21,-0.41 0.1,-0.07 0.22,-0.11 0.36,-0.11l1.25 0c0.13,0 0.25,0.05 0.35,0.14 0.1,0.09 0.14,0.2 0.13,0.34 -0.03,0.63 -0.19,1.25 -0.46,1.85 -0.27,0.6 -0.67,1.14 -1.19,1.63 -0.53,0.48 -1.18,0.87 -1.97,1.16 -0.79,0.28 -1.71,0.43 -2.75,0.43zm14.53 0c-1.32,0 -2.43,-0.2 -3.32,-0.6 -0.9,-0.41 -1.58,-0.93 -2.06,-1.57 -0.48,-0.65 -0.73,-1.33 -0.76,-2.06 0,-0.12 0.05,-0.23 0.15,-0.33 0.09,-0.1 0.21,-0.15 0.35,-0.15l1.16 0c0.18,0 0.32,0.05 0.41,0.14 0.09,0.09 0.15,0.19 0.18,0.32 0.08,0.36 0.26,0.72 0.56,1.08 0.29,0.35 0.71,0.65 1.25,0.88 0.54,0.24 1.23,0.36 2.08,0.36 1.3,0 2.26,-0.24 2.88,-0.7 0.61,-0.46 0.92,-1.08 0.92,-1.85 0,-0.53 -0.17,-0.96 -0.49,-1.29 -0.33,-0.32 -0.82,-0.61 -1.49,-0.87 -0.67,-0.26 -1.53,-0.54 -2.59,-0.84 -1.11,-0.32 -2.03,-0.67 -2.76,-1.05 -0.72,-0.38 -1.27,-0.85 -1.62,-1.41 -0.36,-0.56 -0.54,-1.27 -0.54,-2.14 0,-0.82 0.22,-1.55 0.66,-2.19 0.44,-0.65 1.08,-1.16 1.9,-1.54 0.83,-0.38 1.83,-0.57 3.02,-0.57 0.94,0 1.76,0.13 2.46,0.38 0.71,0.25 1.3,0.58 1.77,1 0.47,0.42 0.82,0.86 1.06,1.34 0.25,0.48 0.38,0.95 0.39,1.4 0,0.11 -0.04,0.21 -0.11,0.31 -0.08,0.1 -0.2,0.15 -0.37,0.15l-1.2 0c-0.11,0 -0.22,-0.03 -0.33,-0.1 -0.12,-0.06 -0.2,-0.17 -0.26,-0.34 -0.09,-0.62 -0.44,-1.14 -1.05,-1.57 -0.61,-0.42 -1.39,-0.63 -2.36,-0.63 -0.99,0 -1.79,0.19 -2.4,0.57 -0.62,0.38 -0.92,0.97 -0.92,1.77 0,0.52 0.14,0.94 0.43,1.29 0.29,0.34 0.74,0.64 1.36,0.89 0.62,0.26 1.43,0.53 2.44,0.82 1.21,0.34 2.2,0.69 2.97,1.06 0.78,0.37 1.35,0.83 1.72,1.39 0.37,0.55 0.56,1.26 0.56,2.12 0,0.96 -0.25,1.77 -0.75,2.45 -0.5,0.67 -1.2,1.19 -2.11,1.54 -0.9,0.36 -1.96,0.54 -3.19,0.54zm13.24 -0.23c-0.23,0 -0.41,-0.05 -0.54,-0.16 -0.13,-0.1 -0.23,-0.25 -0.31,-0.43l-5.07 -14.62c-0.03,-0.09 -0.04,-0.18 -0.04,-0.25 0,-0.13 0.04,-0.23 0.13,-0.32 0.09,-0.09 0.2,-0.14 0.32,-0.14l1.18 0c0.19,0 0.33,0.05 0.43,0.15 0.09,0.1 0.15,0.18 0.17,0.26l4.45 12.9 4.46 -12.9c0.03,-0.08 0.09,-0.16 0.18,-0.26 0.09,-0.1 0.23,-0.15 0.41,-0.15l1.18 0c0.13,0 0.24,0.05 0.33,0.14 0.1,0.09 0.15,0.19 0.15,0.32 0,0.07 -0.01,0.16 -0.04,0.25l-5.1 14.62c-0.06,0.18 -0.15,0.33 -0.28,0.43 -0.13,0.11 -0.31,0.16 -0.54,0.16l-1.47 0z"/></svg>