<?xml version="1.0" encoding="UTF-8"?>
<!DOCTYPE svg PUBLIC "-//W3C//DTD SVG 1.0//EN" "http://www.w3.org/TR/2001/REC-SVG-20010904/DTD/svg10.dtd">
<!-- Creator: CorelDRAW 2020 (64-Bit) -->
<svg xmlns="http://www.w3.org/2000/svg" xml:space="preserve" width="50px" height="17px" version="1.0" shape-rendering="geometricPrecision" text-rendering="geometricPrecision" image-rendering="optimizeQuality" fill-rule="evenodd" clip-rule="evenodd"
viewBox="0 0 50 16.67"
 xmlns:xlink="http://www.w3.org/1999/xlink"
 xmlns:xodm="http://www.corel.com/coreldraw/odm/2003">
 <g id="Слой_x0020_1">
  <metadata id="CorelCorpID_0Corel-Layer"/>
  <path fill="#BD8E3E" fill-rule="nonzero" d="M8.43 12.49c-0.7,0 -1.3,-0.11 -1.8,-0.34 -0.51,-0.24 -0.9,-0.59 -1.18,-1.07 -0.28,-0.49 -0.43,-1.09 -0.46,-1.81 -0.01,-0.34 -0.01,-0.67 -0.01,-1 0,-0.33 0,-0.67 0.01,-1.01 0.03,-0.71 0.18,-1.31 0.47,-1.79 0.29,-0.48 0.69,-0.84 1.2,-1.08 0.5,-0.24 1.09,-0.36 1.77,-0.36 0.67,0 1.26,0.12 1.77,0.36 0.51,0.24 0.91,0.6 1.2,1.08 0.29,0.48 0.45,1.08 0.47,1.79 0.02,0.34 0.02,0.68 0.02,1.01 0,0.33 0,0.66 -0.02,1 -0.02,0.72 -0.18,1.32 -0.46,1.81 -0.28,0.48 -0.67,0.83 -1.18,1.07 -0.51,0.23 -1.11,0.34 -1.8,0.34zm0 -1.35c0.5,0 0.92,-0.15 1.24,-0.45 0.32,-0.3 0.5,-0.8 0.52,-1.48 0.01,-0.34 0.02,-0.66 0.02,-0.96 0,-0.29 -0.01,-0.61 -0.02,-0.94 -0.02,-0.46 -0.1,-0.83 -0.25,-1.11 -0.16,-0.29 -0.36,-0.5 -0.62,-0.63 -0.26,-0.13 -0.56,-0.19 -0.89,-0.19 -0.33,0 -0.63,0.06 -0.89,0.19 -0.26,0.13 -0.46,0.34 -0.61,0.63 -0.16,0.28 -0.24,0.65 -0.26,1.11 0,0.33 -0.01,0.65 -0.01,0.94 0,0.3 0.01,0.62 0.01,0.96 0.03,0.68 0.2,1.18 0.52,1.48 0.32,0.3 0.73,0.45 1.24,0.45zm5.16 3.47c-0.08,0 -0.15,-0.03 -0.2,-0.08 -0.06,-0.06 -0.08,-0.12 -0.08,-0.2l0 -7.79c0,-0.08 0.02,-0.14 0.08,-0.2 0.05,-0.05 0.12,-0.08 0.2,-0.08l0.93 0c0.08,0 0.15,0.03 0.2,0.08 0.05,0.06 0.08,0.12 0.08,0.2l0 0.47c0.19,-0.25 0.43,-0.46 0.74,-0.62 0.31,-0.17 0.69,-0.25 1.14,-0.25 0.42,0 0.78,0.07 1.08,0.2 0.31,0.14 0.56,0.33 0.77,0.57 0.2,0.25 0.36,0.54 0.47,0.88 0.11,0.34 0.17,0.71 0.19,1.12 0,0.13 0.01,0.27 0.01,0.41 0,0.14 -0.01,0.28 -0.01,0.42 -0.01,0.39 -0.07,0.76 -0.18,1.09 -0.11,0.33 -0.27,0.62 -0.48,0.87 -0.21,0.25 -0.46,0.44 -0.77,0.58 -0.3,0.14 -0.66,0.21 -1.08,0.21 -0.42,0 -0.78,-0.07 -1.08,-0.23 -0.3,-0.15 -0.54,-0.35 -0.73,-0.6l0 2.67c0,0.08 -0.03,0.14 -0.08,0.2 -0.05,0.05 -0.12,0.08 -0.2,0.08l-1 0zm2.66 -3.38c0.33,0 0.6,-0.07 0.78,-0.21 0.19,-0.15 0.33,-0.34 0.41,-0.57 0.08,-0.24 0.13,-0.5 0.15,-0.78 0.01,-0.24 0.01,-0.47 0,-0.71 -0.02,-0.28 -0.07,-0.54 -0.15,-0.77 -0.08,-0.24 -0.22,-0.43 -0.41,-0.57 -0.18,-0.15 -0.45,-0.22 -0.78,-0.22 -0.33,0 -0.59,0.07 -0.79,0.22 -0.2,0.15 -0.34,0.34 -0.43,0.57 -0.09,0.24 -0.14,0.47 -0.16,0.72 -0.01,0.14 -0.01,0.29 -0.01,0.44 0,0.16 0,0.31 0.01,0.46 0.01,0.24 0.06,0.46 0.16,0.68 0.11,0.21 0.25,0.39 0.45,0.53 0.2,0.14 0.45,0.21 0.77,0.21zm6.9 1.26c-0.87,0 -1.56,-0.25 -2.07,-0.75 -0.51,-0.5 -0.79,-1.22 -0.82,-2.14 -0.01,-0.08 -0.02,-0.18 -0.02,-0.3 0,-0.12 0.01,-0.22 0.02,-0.29 0.03,-0.59 0.16,-1.1 0.4,-1.53 0.24,-0.43 0.57,-0.76 0.99,-0.99 0.43,-0.23 0.93,-0.35 1.5,-0.35 0.63,0 1.17,0.13 1.6,0.4 0.43,0.26 0.75,0.62 0.97,1.09 0.22,0.47 0.33,1.01 0.33,1.62l0 0.24c0,0.08 -0.02,0.15 -0.08,0.2 -0.05,0.06 -0.13,0.09 -0.21,0.09l-3.91 0c0,0 0,0.01 0,0.03 0,0.02 0,0.04 0,0.06 0.01,0.27 0.07,0.53 0.16,0.76 0.1,0.23 0.25,0.42 0.44,0.56 0.19,0.14 0.42,0.21 0.69,0.21 0.22,0 0.4,-0.03 0.55,-0.1 0.15,-0.07 0.27,-0.14 0.36,-0.23 0.1,-0.09 0.16,-0.16 0.2,-0.21 0.07,-0.1 0.13,-0.15 0.17,-0.17 0.05,-0.02 0.11,-0.03 0.2,-0.03l1.01 0c0.08,0 0.14,0.02 0.19,0.07 0.05,0.05 0.08,0.1 0.07,0.17 -0.01,0.13 -0.07,0.28 -0.2,0.46 -0.12,0.18 -0.29,0.36 -0.52,0.53 -0.23,0.17 -0.51,0.32 -0.85,0.43 -0.34,0.12 -0.73,0.17 -1.17,0.17zm-1.3 -3.7l2.6 0 0 -0.04c0,-0.3 -0.05,-0.57 -0.15,-0.8 -0.1,-0.22 -0.25,-0.4 -0.45,-0.54 -0.19,-0.13 -0.43,-0.2 -0.7,-0.2 -0.28,0 -0.51,0.07 -0.71,0.2 -0.19,0.14 -0.34,0.32 -0.44,0.54 -0.1,0.23 -0.15,0.5 -0.15,0.8l0 0.04zm5.73 3.58c-0.08,0 -0.14,-0.02 -0.2,-0.08 -0.05,-0.05 -0.08,-0.12 -0.08,-0.2l0 -5.55c0,-0.08 0.03,-0.14 0.08,-0.2 0.06,-0.05 0.12,-0.08 0.2,-0.08l0.97 0c0.07,0 0.14,0.03 0.2,0.08 0.05,0.06 0.08,0.12 0.08,0.2l0 0.48c0.2,-0.25 0.46,-0.46 0.78,-0.63 0.32,-0.16 0.71,-0.25 1.18,-0.25 0.48,0 0.9,0.11 1.25,0.33 0.35,0.21 0.62,0.51 0.82,0.91 0.19,0.39 0.28,0.86 0.28,1.41l0 3.3c0,0.08 -0.02,0.15 -0.08,0.2 -0.05,0.06 -0.12,0.08 -0.2,0.08l-1.03 0c-0.08,0 -0.15,-0.02 -0.2,-0.08 -0.06,-0.05 -0.09,-0.12 -0.09,-0.2l0 -3.23c0,-0.46 -0.11,-0.81 -0.33,-1.07 -0.22,-0.26 -0.55,-0.39 -0.97,-0.39 -0.41,0 -0.73,0.13 -0.98,0.39 -0.24,0.26 -0.36,0.61 -0.36,1.07l0 3.23c0,0.08 -0.03,0.15 -0.08,0.2 -0.06,0.06 -0.13,0.08 -0.2,0.08l-1.04 0zm10.4 0.12c-0.72,0 -1.34,-0.12 -1.84,-0.37 -0.51,-0.25 -0.9,-0.62 -1.18,-1.09 -0.28,-0.48 -0.43,-1.04 -0.45,-1.7 -0.01,-0.34 -0.01,-0.7 -0.01,-1.09 0,-0.39 0,-0.75 0.01,-1.1 0.02,-0.65 0.17,-1.21 0.45,-1.67 0.28,-0.46 0.67,-0.82 1.19,-1.07 0.51,-0.25 1.12,-0.37 1.83,-0.37 0.57,0 1.07,0.07 1.5,0.22 0.43,0.16 0.79,0.35 1.08,0.59 0.28,0.24 0.5,0.5 0.64,0.77 0.15,0.28 0.23,0.53 0.23,0.77 0.01,0.07 -0.01,0.13 -0.06,0.17 -0.04,0.05 -0.1,0.07 -0.18,0.07l-1.21 0c-0.08,0 -0.14,-0.01 -0.18,-0.04 -0.04,-0.03 -0.08,-0.08 -0.11,-0.14 -0.06,-0.17 -0.16,-0.33 -0.29,-0.49 -0.13,-0.16 -0.31,-0.3 -0.54,-0.41 -0.23,-0.11 -0.52,-0.16 -0.88,-0.16 -0.54,0 -0.96,0.14 -1.28,0.42 -0.32,0.28 -0.49,0.75 -0.51,1.4 -0.02,0.68 -0.02,1.37 0,2.07 0.02,0.67 0.2,1.14 0.52,1.43 0.33,0.29 0.76,0.44 1.29,0.44 0.35,0 0.67,-0.06 0.95,-0.19 0.27,-0.12 0.49,-0.32 0.66,-0.59 0.16,-0.26 0.24,-0.6 0.24,-1.02l0 -0.36 -1.44 0c-0.08,0 -0.14,-0.03 -0.2,-0.09 -0.05,-0.05 -0.08,-0.12 -0.08,-0.21l0 -0.62c0,-0.09 0.03,-0.16 0.08,-0.21 0.06,-0.06 0.12,-0.09 0.2,-0.09l2.81 0c0.09,0 0.16,0.03 0.21,0.09 0.05,0.05 0.07,0.12 0.07,0.21l0 1.23c0,0.66 -0.14,1.23 -0.42,1.71 -0.29,0.48 -0.7,0.85 -1.23,1.1 -0.53,0.26 -1.15,0.39 -1.87,0.39zm5.18 -0.12c-0.08,0 -0.14,-0.02 -0.2,-0.08 -0.05,-0.05 -0.08,-0.12 -0.08,-0.2l0 -7.78c0,-0.08 0.03,-0.15 0.08,-0.2 0.06,-0.06 0.12,-0.08 0.2,-0.08l0.98 0c0.08,0 0.14,0.02 0.2,0.08 0.05,0.05 0.08,0.12 0.08,0.2l0 7.78c0,0.08 -0.03,0.15 -0.08,0.2 -0.06,0.06 -0.12,0.08 -0.2,0.08l-0.98 0z"/>
 </g>
</svg>
